<svg xmlns="http://www.w3.org/2000/svg" viewBox="0 0 96 96">
  <defs>
    <linearGradient id="ilg" x1="0" y1="0" x2="1" y2="1">
      <stop offset="0" stop-color="#7B2FBE"/><stop offset="0.55" stop-color="#651E82"/><stop offset="1" stop-color="#3B1566"/>
    </linearGradient>
    <linearGradient id="ispark" x1="0" y1="0" x2="0" y2="1">
      <stop offset="0" stop-color="#F3E3FF"/><stop offset="1" stop-color="#C89BF0"/>
    </linearGradient>
  </defs>
  <rect x="2" y="2" width="92" height="92" rx="24" fill="url(#ilg)"/>
  <rect x="2" y="2" width="92" height="92" rx="24" fill="none" stroke="rgba(243,227,255,0.25)" stroke-width="2"/>
  <g transform="skewX(-9)"><rect x="49" y="44" width="15" height="36" rx="7.5" fill="#FFFFFF"/></g>
  <path d="M59 10 C61.5 21 66 25.5 77 28 C66 30.5 61.5 35 59 46 C56.5 35 52 30.5 41 28 C52 25.5 56.5 21 59 10 Z" fill="url(#ispark)"/>
  <path d="M33 40 C34.2 45 36.5 47.3 41.5 48.5 C36.5 49.7 34.2 52 33 57 C31.8 52 29.5 49.7 24.5 48.5 C29.5 47.3 31.8 45 33 40 Z" fill="rgba(243,227,255,0.85)"/>
</svg>
