<svg xmlns="http://www.w3.org/2000/svg" viewBox="0 0 96 96">
  <defs>
    <linearGradient id="itile" x1="0" y1="0" x2="1" y2="1">
      <stop offset="0" stop-color="#4A1470"/><stop offset="0.5" stop-color="#2E0B4E"/><stop offset="1" stop-color="#160528"/>
    </linearGradient>
    <linearGradient id="ibolt" x1="0" y1="0" x2="0.4" y2="1">
      <stop offset="0" stop-color="#FFFFFF"/><stop offset="1" stop-color="#D9B8F5"/>
    </linearGradient>
  </defs>
  <path d="M27 2 H69 L94 27 V69 L69 94 H27 L2 69 V27 Z" fill="url(#itile)"/>
  <path d="M27 2 H69 L94 27 V69 L69 94 H27 L2 69 V27 Z" fill="none" stroke="#9C5AD8" stroke-width="2.5" stroke-opacity="0.85"/>
  <path d="M30.5 10 H65.5 L86 30.5 V65.5 L65.5 86 H30.5 L10 65.5 V30.5 Z" fill="none" stroke="rgba(156,90,216,0.35)" stroke-width="1.5"/>
  <path d="M59 10 L28 55 L44 55 L35 86 L69 41 L52 41 L64 10 Z" fill="url(#ibolt)"/>
  <path d="M18 40 L30 40 L26 46 L14 46 Z" fill="rgba(156,90,216,0.7)"/>
  <path d="M70 56 L82 56 L78 62 L66 62 Z" fill="rgba(156,90,216,0.7)"/>
</svg>
